<svg width="115" height="16" viewBox="0 0 115 16" fill="none" xmlns="http://www.w3.org/2000/svg">
<path d="M9.55298 12.419H4.75305L3.98096 14.664H0.400024L5.31995 1.73901H8.98804L13.908 14.664H10.325L9.55298 12.419ZM8.66199 9.86401L7.15405 5.564L5.64502 9.86401H8.66199Z" fill="white"/>
<path d="M19.5 4.58499V14.664H16.139V4.58499H13.379V1.73901H22.259V4.58499H19.5Z" fill="white"/>
<path d="M27.1 6.728H31.952V1.73901H35.311V14.664H31.952V9.33301H27.1V14.664H23.741V1.73901H27.1V6.728Z" fill="white"/>
<path d="M44.6949 1.74097L48.269 10.697L51.8929 1.74097H54.028L48.228 15.635L42.562 1.74097H44.6949Z" fill="white"/>
<path d="M54.389 8.14388C54.3793 7.26667 54.552 6.397 54.8963 5.59013C55.2406 4.78326 55.749 4.05681 56.389 3.45686C57.0135 2.82396 57.7596 2.3241 58.5825 1.98741C59.4054 1.65073 60.288 1.48418 61.177 1.49785C62.9564 1.50783 64.6602 2.21916 65.9184 3.47743C67.1767 4.73571 67.888 6.43941 67.8979 8.21886C67.9129 9.10228 67.7436 9.97912 67.4006 10.7934C67.0576 11.6076 66.5486 12.3414 65.906 12.9479C64.6689 14.1593 63.0179 14.8556 61.287 14.8961C59.556 14.9366 57.8743 14.3181 56.582 13.1658C55.8647 12.5456 55.2954 11.7726 54.9159 10.9036C54.5364 10.0346 54.3564 9.09159 54.389 8.14388ZM56.3559 8.16887C56.335 8.82445 56.4524 9.47707 56.7005 10.0842C56.9486 10.6914 57.322 11.2395 57.796 11.6929C58.6931 12.5821 59.9065 13.079 61.1697 13.0743C62.4328 13.0696 63.6425 12.5638 64.5329 11.6679C65.4271 10.7367 65.928 9.49671 65.9311 8.20577C65.9343 6.91482 65.4396 5.67235 64.55 4.73686C63.6469 3.83773 62.4244 3.33293 61.15 3.33293C59.8756 3.33293 58.6531 3.83773 57.75 4.73686C57.2955 5.18334 56.9374 5.71821 56.6976 6.30849C56.4579 6.89876 56.3415 7.53192 56.3559 8.16887Z" fill="white"/>
<path d="M70.319 14.664V1.74095H73.031C74.0716 1.70588 75.1111 1.83583 76.111 2.12596C76.9306 2.38365 77.6823 2.82133 78.311 3.40696C78.9729 4.01389 79.4946 4.75765 79.84 5.58656C80.1853 6.41547 80.3461 7.30965 80.311 8.20695C80.3411 9.54675 79.9423 10.8611 79.173 11.9584C78.4036 13.0557 77.3039 13.8786 76.0341 14.307C75.0459 14.5824 74.0211 14.7039 72.996 14.6669L70.319 14.664ZM72.269 12.8309H73.1479C73.8857 12.8493 74.6221 12.7562 75.332 12.5549C76.2354 12.2499 77.0163 11.6618 77.5591 10.8779C78.1018 10.0939 78.3774 9.15589 78.345 8.20295C78.3689 7.55974 78.2544 6.91889 78.009 6.32383C77.7637 5.72877 77.3933 5.1934 76.923 4.75395C75.8596 3.89656 74.5103 3.47482 73.1479 3.57395H72.269V12.8309Z" fill="white"/>
<path d="M84.6899 6.89996L89.72 1.74396H92.3199L86.478 7.59396L92.353 14.667H89.7419L85.088 8.91696L84.688 9.31696V14.665H82.738V1.74097H84.688L84.6899 6.89996Z" fill="white"/>
<path d="M102.441 11.525H96.9091L95.469 14.664H93.369L99.7629 0.928955L105.931 14.664H103.8L102.441 11.525ZM101.641 9.69196L99.724 5.29797L97.715 9.69196H101.641Z" fill="white"/>
<path d="M114.588 5.17882C114.597 5.69581 114.501 6.20923 114.304 6.68749C114.107 7.16574 113.815 7.59873 113.445 7.95982C113.083 8.32461 112.652 8.61411 112.177 8.81166C111.702 9.00921 111.193 9.11092 110.679 9.11092C110.164 9.11092 109.655 9.00921 109.18 8.81166C108.706 8.61411 108.275 8.32461 107.912 7.95982C107.542 7.59763 107.25 7.16358 107.053 6.68431C106.857 6.20504 106.76 5.69069 106.77 5.17284C106.762 4.60005 106.89 4.0335 107.141 3.51885C107.384 2.99775 107.741 2.53778 108.185 2.17284C108.869 1.58863 109.74 1.26927 110.639 1.27284C111.203 1.26488 111.761 1.38132 112.274 1.61385C112.964 1.91443 113.548 2.41628 113.948 3.05382C114.365 3.68426 114.587 4.42312 114.588 5.17882ZM110.654 1.83583C110.224 1.83119 109.798 1.91651 109.403 2.08632C109.008 2.25613 108.653 2.50665 108.361 2.82182C108.051 3.12949 107.807 3.49623 107.641 3.90025C107.476 4.30428 107.394 4.73737 107.399 5.17384C107.392 5.61508 107.473 6.05329 107.638 6.46248C107.803 6.87167 108.049 7.24348 108.361 7.55583C108.661 7.8673 109.021 8.11514 109.419 8.28456C109.817 8.45399 110.245 8.54154 110.678 8.54201C111.111 8.54247 111.539 8.45585 111.937 8.28728C112.336 8.11871 112.696 7.87165 112.997 7.56084C113.307 7.24778 113.552 6.87572 113.716 6.4666C113.88 6.05748 113.961 5.61959 113.953 5.17882C113.944 4.64325 113.816 4.11645 113.577 3.63683C113.352 3.16573 113.013 2.75836 112.591 2.45183C112.027 2.04531 111.349 1.82949 110.654 1.83583ZM111.064 5.55983L112.533 7.44783H111.479L110.137 5.65685V7.44783H109.273V2.92983H110.173C110.658 2.89055 111.143 3.00874 111.555 3.26683C111.71 3.38685 111.834 3.54165 111.918 3.71867C112.002 3.8957 112.043 4.09 112.038 4.28584C112.038 4.56883 111.947 4.84436 111.779 5.07182C111.618 5.29741 111.387 5.46255 111.121 5.54082L111.064 5.55983ZM110.132 4.93483H110.278C110.896 4.93483 111.205 4.72182 111.206 4.29582C111.206 3.89582 110.906 3.69585 110.306 3.69585H110.131L110.132 4.93483Z" fill="white"/>
</svg>
