<svg width="211" height="328" viewBox="0 0 211 328" fill="none" xmlns="http://www.w3.org/2000/svg">
<path d="M37.869 223.209L46.118 246.934H29.594L37.869 223.209ZM27.804 202.187L0.81897 273.512H20.426L24.675 261.124H50.991L55.241 273.512H74.919L47.9319 202.187H27.804Z" fill="white"/>
<path d="M106.753 217.878V273.512H88.3389V217.878H73.205V202.112H121.887V217.878H106.753Z" fill="white"/>
<path d="M148.502 229.666H175.042V202.112H193.456V273.512H175.042V244.081H148.502V273.512H130.088V202.112H148.502V229.666Z" fill="white"/>
<path d="M30.19 289.279L20.275 313.755L10.584 289.279H4.76898L20.201 327.269L35.932 289.279H30.19Z" fill="white"/>
<mask id="mask0_2_5690" style="mask-type:luminance" maskUnits="userSpaceOnUse" x="0" y="0" width="211" height="328">
<path d="M210.38 0.0749512H0.816956V327.268H210.38V0.0749512Z" fill="white"/>
</mask>
<g mask="url(#mask0_2_5690)">
<path d="M41.6709 306.772C41.6429 304.373 42.1119 301.993 43.0485 299.784C43.9851 297.574 45.3689 295.583 47.113 293.934C49.6872 291.388 52.9576 289.661 56.5119 288.97C60.0662 288.279 63.7453 288.656 67.0857 290.053C70.4262 291.45 73.2785 293.805 75.283 296.82C77.2875 299.835 78.3547 303.376 78.35 306.997C78.4 309.411 77.9411 311.809 77.0033 314.034C76.0656 316.259 74.6698 318.261 72.9069 319.911C69.5528 323.22 65.0627 325.124 60.3525 325.236C55.6422 325.347 51.0669 323.658 47.56 320.511C45.6398 318.786 44.1183 316.663 43.1014 314.291C42.0844 311.918 41.5963 309.352 41.6709 306.772ZM47.038 306.847C46.9872 308.63 47.3053 310.403 47.9725 312.057C48.6396 313.711 49.6414 315.209 50.915 316.457C52.0861 317.661 53.4894 318.614 55.0398 319.259C56.5903 319.905 58.2557 320.229 59.935 320.211C61.6677 320.245 63.3888 319.922 64.9918 319.263C66.5947 318.605 68.0453 317.624 69.254 316.382C71.6822 313.836 73.043 310.456 73.0569 306.937C73.0709 303.418 71.737 300.028 69.329 297.462C66.8772 295.01 63.5519 293.633 60.0845 293.633C56.6172 293.633 53.2918 295.01 50.84 297.462C49.5984 298.683 48.6205 300.146 47.9668 301.761C47.3132 303.375 46.9978 305.106 47.04 306.847" fill="white"/>
<path d="M89.681 324.641V289.279H97.062C99.8826 289.195 102.699 289.55 105.411 290.33C107.644 291.031 109.686 292.238 111.375 293.858C115.029 297.158 116.818 301.591 116.818 306.997C116.907 310.661 115.828 314.258 113.737 317.268C111.647 320.278 108.652 322.545 105.188 323.74C102.498 324.5 99.7056 324.829 96.913 324.716H89.681V324.641ZM94.9739 319.61H97.3599C99.3747 319.669 101.387 319.415 103.324 318.859C104.912 318.333 106.363 317.462 107.573 316.307C110.057 313.8 111.45 310.414 111.45 306.885C111.45 303.355 110.057 299.969 107.573 297.462C105.263 295.285 101.833 294.234 97.2859 294.234H94.9V319.61H94.9739Z" fill="white"/>
</g>
<path d="M133.519 303.393L147.162 289.278H154.244L138.365 305.27L154.319 324.64H147.237L134.564 308.874L133.519 310.003V324.643H128.151V289.281H133.519V303.393Z" fill="white"/>
<path d="M184.361 316.003H169.301L165.425 324.562H159.684L177.055 286.947L193.829 324.562H188.013L184.361 316.003ZM182.198 310.972L176.98 298.96L171.538 310.972H182.198Z" fill="white"/>
<path d="M65.303 134.541H64.1099V116.072H57.773V106.537H64.1099V94.1489H65.303V106.537H71.64V116.072H65.303V134.541Z" fill="#B38F57"/>
<path d="M46.7399 66.0688H45.619V82.1359H39.208V105.56H45.619V117.573H46.737V105.56H53.074V82.1359H46.737L46.7399 66.0688Z" fill="#B38F57"/>
<path d="M83.7919 151.434H82.5989V132.064H76.262V106.987H82.5989V96.4028H83.7919V106.989H90.129V132.066H83.7919V151.434Z" fill="#B38F57"/>
<path d="M120.843 122.078H119.65V114.345H113.313V74.6279H119.65V67.0449H120.843V74.6279H127.18V114.345H120.843V122.078Z" fill="#B38F57"/>
<path d="M138.214 0.0749512V10.5859H131.877V91.8209H138.214V107.437H139.332V91.8209H145.743V10.5859H139.332V0.0749512H138.214Z" fill="#B38F57"/>
<path d="M102.355 177.186H101.162V157.14H94.825V128.16H101.162V117.573H102.355V128.159H108.692V157.139H102.355V177.186Z" fill="#B38F57"/>
<mask id="mask1_2_5690" style="mask-type:luminance" maskUnits="userSpaceOnUse" x="0" y="0" width="211" height="328">
<path d="M210.38 0.0749512H0.816956V327.268H210.38V0.0749512Z" fill="white"/>
</mask>
<g mask="url(#mask1_2_5690)">
<path d="M201.358 292.056H204.191C204.6 292.043 205.008 292.121 205.384 292.282C205.67 292.408 205.91 292.62 206.07 292.889C206.231 293.158 206.303 293.47 206.278 293.782C206.294 294.097 206.216 294.41 206.055 294.682C205.887 294.936 205.655 295.143 205.384 295.282C205.596 295.343 205.78 295.475 205.906 295.657C206.078 295.896 206.157 296.189 206.129 296.483V297.309C206.129 297.534 206.129 297.759 206.204 297.834C206.221 297.916 206.256 297.993 206.309 298.058C206.361 298.123 206.428 298.175 206.504 298.21V298.36H205.46C205.46 298.285 205.386 298.21 205.386 298.135C205.385 297.957 205.359 297.78 205.311 297.609L205.237 296.558C205.259 296.39 205.228 296.22 205.147 296.072C205.067 295.924 204.941 295.805 204.789 295.732C204.556 295.622 204.301 295.571 204.044 295.582H202.18V298.282H201.36L201.358 292.056ZM204.116 294.984C204.43 294.999 204.742 294.921 205.011 294.759C205.143 294.651 205.246 294.513 205.311 294.356C205.376 294.199 205.401 294.028 205.384 293.859C205.406 293.681 205.375 293.502 205.296 293.342C205.216 293.181 205.092 293.048 204.937 292.959C204.728 292.857 204.498 292.806 204.266 292.809H202.253V294.986L204.116 294.984Z" fill="white"/>
<path d="M203.595 301.892C202.241 301.902 200.916 301.509 199.785 300.764C198.655 300.019 197.772 298.955 197.247 297.708C196.722 296.46 196.58 295.084 196.838 293.756C197.097 292.427 197.744 291.205 198.697 290.244C199.651 289.284 200.868 288.628 202.195 288.361C203.522 288.093 204.899 288.226 206.15 288.742C207.401 289.258 208.472 290.133 209.224 291.258C209.977 292.383 210.379 293.706 210.379 295.06C210.378 296.863 209.665 298.594 208.394 299.873C207.124 301.153 205.398 301.879 203.595 301.892ZM203.595 289.053C202.405 289.044 201.239 289.389 200.246 290.044C199.253 290.699 198.476 291.634 198.015 292.731C197.553 293.828 197.428 295.037 197.655 296.205C197.882 297.373 198.451 298.448 199.289 299.292C200.127 300.136 201.198 300.713 202.364 300.948C203.531 301.183 204.741 301.067 205.841 300.614C206.941 300.16 207.882 299.39 208.543 298.402C209.205 297.413 209.559 296.25 209.559 295.06C209.561 293.474 208.934 291.951 207.817 290.825C206.699 289.7 205.181 289.062 203.595 289.053Z" fill="white"/>
</g>
</svg>
